<?xml version="1.0" encoding="UTF-8"?>
<svg id="Layer_1" data-name="Layer 1" xmlns="http://www.w3.org/2000/svg" viewBox="0 0 674.57 278.97">
  <defs>
    <style>
      .cls-1, .cls-2, .cls-3, .cls-4, .cls-5, .cls-6 {
        fill-rule: evenodd;
      }

      .cls-1, .cls-7, .cls-6 {
        fill: #f3a21c;
      }

      .cls-2, .cls-4, .cls-5, .cls-7, .cls-6 {
        stroke: #000;
        stroke-miterlimit: 22.93;
        stroke-width: .22px;
      }

      .cls-3 {
        fill: #fff;
      }

      .cls-4 {
        fill: #ca4a1e;
      }

      .cls-5 {
        fill: #1e0000;
      }

      .cls-8 {
        fill: #231f20;
        font-family: Poppins-Regular, Poppins;
        font-size: 44px;
      }
    </style>
  </defs>
  <g>
    <path class="cls-1" d="m271.97,157.91v2.82c0,.94-.03,1.88-.1,2.82,0,1.34-.1,2.62-.3,3.83-.2,1.07-.39,2.13-.55,3.17-.17,1.04-.35,2.07-.55,3.07-.74,2.96-1.75,5.78-3.02,8.46-.47,1.01-.96,1.98-1.46,2.92-.5.94-1.09,1.88-1.76,2.82-.87,1.21-1.75,2.25-2.62,3.12-.74.87-1.51,1.68-2.32,2.42-.81.74-1.68,1.38-2.62,1.91-2.82,1.88-6.01,3.22-9.57,4.03-.81.13-1.6.27-2.37.4-.77.13-1.56.2-2.37.2-.74.07-1.48.08-2.22.05-.74-.03-1.48-.05-2.22-.05-2.28-.07-4.63-.54-7.05-1.41-1.14-.4-2.28-.89-3.43-1.46-1.14-.57-2.22-1.23-3.22-1.96-.87-.6-1.7-1.24-2.47-1.91-.77-.67-1.53-1.38-2.27-2.12-.54-.54-1.04-1.07-1.51-1.61-.47-.54-.91-1.11-1.31-1.71-1.01-1.48-1.91-3.09-2.72-4.84-.4-.94-.79-1.88-1.16-2.82-.37-.94-.76-1.88-1.16-2.82-.4-.94-.71-1.91-.91-2.92-.2-1.01-.44-1.98-.71-2.92-.34-1.01-.54-2.01-.6-3.02-.13-.34-.2-.65-.2-.96v-.96c-.07-.94-.12-1.9-.15-2.87-.03-.97-.08-1.96-.15-2.97v-1.41c0-.4.02-.81.05-1.21.03-.4.05-.77.05-1.11,0-.74.03-1.44.1-2.12.07-.67.2-1.34.4-2.02.2-.74.35-1.51.45-2.32.1-.81.25-1.61.45-2.42.47-1.95,1.09-3.83,1.86-5.64.77-1.81,1.66-3.59,2.67-5.34.34-.54.62-1.04.86-1.51.24-.47.52-.94.86-1.41.6-.81,1.24-1.55,1.91-2.22.6-.6,1.19-1.21,1.76-1.81.57-.6,1.19-1.18,1.86-1.71,1.34-1.01,2.72-1.91,4.13-2.72,1.41-.81,2.96-1.44,4.63-1.91.13-.07.25-.12.35-.15.1-.03.22-.08.35-.15.94-.54,1.9-.86,2.87-.96.97-.1,1.96-.19,2.97-.25.54,0,.94-.03,1.21-.1.74-.2,1.49-.27,2.27-.2.77.07,1.56.17,2.37.3.34.07.71.12,1.11.15.4.03.77.05,1.11.05.74,0,1.55.17,2.42.5.67.2,1.33.42,1.96.66.64.23,1.29.45,1.96.65.6.13,1.14.34,1.61.6.47.27.97.57,1.51.91,1.14.6,2.18,1.29,3.12,2.07.94.77,1.88,1.63,2.82,2.57.74.74,1.41,1.51,2.02,2.32.6.81,1.21,1.61,1.81,2.42.27.34.47.67.6,1.01.13.34.3.67.5,1.01.34.54.65,1.09.96,1.66.3.57.59,1.16.86,1.76.4.67.71,1.44.91,2.32.34,1.07.67,2.13,1.01,3.17.34,1.04.67,2.1,1.01,3.17.2.81.37,1.61.5,2.42.13.81.27,1.61.4,2.42.13.67.22,1.31.25,1.91.03.6.12,1.24.25,1.91h-.1Z"/>
    <path class="cls-1" d="m540.76,68.44c0,.4.02.81.05,1.21.03.4.05.81.05,1.21l-.3,4.84c-.13,1.75-.35,3.46-.65,5.14-.3,1.68-.72,3.36-1.26,5.04-1.14,4.16-3.02,8.13-5.64,11.89-.67.94-1.36,1.8-2.07,2.57-.71.77-1.49,1.53-2.37,2.27-.94.81-1.88,1.54-2.82,2.22-.94.67-1.95,1.28-3.02,1.81-.34.2-.44.4-.3.6.81,3.83,2.32,7.29,4.53,10.38.74,1.01,1.56,1.93,2.47,2.77.91.84,1.93,1.53,3.07,2.07.54.13.77.34.71.6,0,.4-.23.71-.71.91-.47.13-.92.27-1.36.4-.44.13-.89.27-1.36.4-.54.13-1.04.22-1.51.25-.47.03-.97.05-1.51.05-1.34-.07-2.64-.27-3.88-.6-1.24-.34-2.5-.77-3.78-1.31-.34-.13-.69-.32-1.06-.55-.37-.24-.72-.45-1.06-.65-.74-.47-1.48-.89-2.22-1.26-.74-.37-1.41-.89-2.02-1.56-.27-.34-.55-.6-.86-.81-.3-.2-.62-.44-.96-.71-.2-.13-.39-.32-.55-.55-.17-.24-.35-.45-.55-.65l-3.63-4.23c-.27-.34-.49-.64-.65-.91-.17-.27-.35-.57-.55-.91-.2-.34-.42-.62-.65-.86-.23-.23-.59-.39-1.06-.45-.74-.13-1.46-.27-2.17-.4-.71-.13-1.43-.37-2.17-.71-.94-.4-1.9-.82-2.87-1.26-.97-.44-1.9-.99-2.77-1.66-.47-.34-.94-.65-1.41-.96-.47-.3-.94-.62-1.41-.96-.54-.4-.91-.74-1.11-1.01-.4-.4-.81-.84-1.21-1.31-.4-.47-.77-.94-1.11-1.41-.67-.6-1.24-1.28-1.71-2.01-.34-.54-.66-1.07-.96-1.61-.3-.54-.62-1.07-.96-1.61-.47-.87-.89-1.75-1.26-2.62-.37-.87-.76-1.75-1.16-2.62-.13-.27-.27-.67-.4-1.21-.4-1.07-.71-2.05-.91-2.92-.2-.87-.39-1.71-.55-2.52-.17-.81-.32-1.61-.45-2.42-.07-.27-.13-.52-.2-.76-.07-.24-.1-.49-.1-.76-.07-.4-.12-.79-.15-1.16-.03-.37-.08-.76-.15-1.16,0-.34-.02-.71-.05-1.11-.03-.4-.05-.77-.05-1.11,0-.2-.02-.4-.05-.6-.03-.2-.05-.4-.05-.6v-2.01c0-.13.02-.25.05-.35.03-.1.05-.22.05-.35,0-1.21.03-2.4.1-3.58.07-1.18.24-2.37.5-3.58.27-1.21.5-2.43.7-3.68.2-1.24.47-2.47.81-3.68.27-.81.59-1.61.96-2.42.37-.81.72-1.61,1.06-2.42.34-.81.71-1.58,1.11-2.32.4-.74.77-1.48,1.11-2.22.27-.4.47-.74.6-1.01.27-.34.5-.67.71-1.01.2-.34.44-.67.71-1.01.34-.47.69-.94,1.06-1.41.37-.47.79-.91,1.26-1.31,2.35-1.81,4.63-3.49,6.85-5.04.4-.27.82-.49,1.26-.65.44-.17.89-.35,1.36-.55.13,0,.2-.03.2-.1,1.07-.54,2.15-.89,3.22-1.06,1.07-.17,2.18-.32,3.33-.45,1.01-.13,2-.23,2.97-.3.97-.07,1.96-.13,2.97-.2h.5c.54.13,1.04.22,1.51.25.47.03.97.08,1.51.15.67.13,1.14.24,1.41.3,1.07.34,2.12.64,3.12.91,1.01.27,2.01.6,3.02,1.01.67.27,1.29.59,1.86.96.57.37,1.16.72,1.76,1.06.4.34.81.65,1.21.96.4.3.81.62,1.21.96.27.2.67.57,1.21,1.11.13,0,.2.07.2.2.54.6,1.07,1.21,1.61,1.81.54.6,1.07,1.21,1.61,1.81.2.2.39.42.55.65.17.24.32.49.45.76,1.01,1.41,1.88,2.96,2.62,4.63.74,1.54,1.36,3.11,1.86,4.68.5,1.58.96,3.21,1.36,4.89.2.81.39,1.61.55,2.42.17.81.32,1.61.45,2.42.13.74.2,1.51.2,2.32s.07,1.58.2,2.32h-.1Z"/>
    <path class="cls-1" d="m407.67,71.77c.54.54,1.07,1.02,1.61,1.46.54.44,1.07.89,1.61,1.36.27.27.44.5.5.71.54.94,1.11,1.85,1.71,2.72.6.87,1.07,1.81,1.41,2.82.27.81.49,1.63.65,2.47.17.84.25,1.73.25,2.67,0,.34.02.65.05.96.03.3.05.62.05.96.07,1.01.02,2-.15,2.97-.17.97-.42,1.96-.76,2.97-.34.94-.72,1.85-1.16,2.72-.44.87-.96,1.68-1.56,2.42-1.14,1.54-2.47,2.89-3.98,4.03-1.51,1.14-3.14,2.12-4.89,2.92-1.21.54-2.43.99-3.68,1.36-1.24.37-2.54.62-3.88.76-.94.13-1.86.25-2.77.35-.91.1-1.83.15-2.77.15-3.49.07-6.99.1-10.48.1h-27.1c-.67-.07-.87-.47-.6-1.21.27-.4.44-.74.5-1.01.2-.6.3-1.21.3-1.81.07-.74.12-1.51.15-2.32.03-.81.08-1.58.15-2.32,0-.34-.02-.69-.05-1.06-.03-.37-.05-.72-.05-1.06-.07-.34-.08-.69-.05-1.06.03-.37.05-.72.05-1.06.13-1.14.18-2.23.15-3.27-.03-1.04-.12-2.13-.25-3.27,0-.13-.02-.22-.05-.25-.03-.03-.05-.12-.05-.25.07-.87.12-1.73.15-2.57.03-.84.05-1.73.05-2.67.07-.94.08-1.9.05-2.87-.03-.97-.05-1.93-.05-2.87v-4.43c-.07-1.14-.1-2.25-.1-3.32v-3.32c-.13-1.68-.13-3.39,0-5.14.07-1.01.12-2.01.15-3.02.03-1.01-.02-2.01-.15-3.02-.07-.07-.1-.2-.1-.4.2-1.68.27-3.34.2-4.99s-.03-3.31.1-4.99v-2.07c0-.64-.03-1.33-.1-2.07,0-.54-.02-1.02-.05-1.46-.03-.44-.08-.92-.15-1.46v-.3c.27-1.21-.07-2.35-1.01-3.43-.07-.13-.13-.27-.2-.4-.07-.13-.07-.27,0-.4.2-.2.47-.3.81-.3.54,0,1.09.02,1.66.05.57.03,1.13.02,1.66-.05.74,0,1.51-.02,2.32-.05.81-.03,1.58-.08,2.32-.15h.2c.67.07,1.34.1,2.02.1s1.34.03,2.01.1h2.12c.81,0,1.61.02,2.42.05.81.03,1.58.02,2.32-.05.81-.13,1.61-.2,2.42-.2s1.61.03,2.42.1c.47.07.92.12,1.36.15.44.03.89.05,1.36.05.54,0,1.09-.02,1.66-.05.57-.03,1.13-.08,1.66-.15.27,0,.5.03.71.1.81.2,1.65.2,2.52,0h.2c1.54.13,3.07.2,4.58.2s3.01.24,4.48.71c.81.27,1.61.5,2.42.71.81.2,1.61.44,2.42.71.27.07.5.15.71.25.2.1.44.22.71.35.4.2.81.4,1.21.6.4.2.77.44,1.11.71.34.2.66.4.96.6.3.2.62.4.96.6l1.21.91c.27.34.54.62.81.86.27.24.5.52.71.86.47.54.91,1.07,1.31,1.61.4.54.77,1.07,1.11,1.61.27.34.47.72.6,1.16.13.44.3.86.5,1.26.34.81.65,1.61.96,2.42.3.81.52,1.68.65,2.62.07.54.12,1.11.15,1.71.03.6.08,1.18.15,1.71.13,1.21.13,2.4,0,3.58-.13,1.18-.3,2.33-.5,3.48-.2,1.01-.52,1.95-.96,2.82-.44.87-.86,1.78-1.26,2.72-.34.74-.76,1.43-1.26,2.07-.5.64-1.02,1.23-1.56,1.76Z"/>
    <path class="cls-1" d="m301.68,79.22v24.78c0,1.21.34,2.28,1.01,3.22.67.74.5,1.18-.5,1.31-.4.07-.79.1-1.16.1h-19.8c-.2,0-.37-.03-.5-.1-.47,0-.57-.2-.3-.6.07-.13.13-.27.2-.4.07-.13.13-.27.2-.4.13-.27.25-.5.35-.71.1-.2.18-.44.25-.71.07-.34.1-.64.1-.91v-.81c0-1.01.05-2.01.15-3.02.1-1.01.08-1.98-.05-2.92-.07-.34-.07-.67,0-1.01.07-.34.1-.67.1-1.01v-8.77c0-.34-.02-.69-.05-1.06-.03-.37-.05-.72-.05-1.06v-2.17c0-.7.03-1.43.1-2.17,0-.74.02-1.44.05-2.12.03-.67.05-1.38.05-2.12,0-.94-.02-1.88-.05-2.82-.03-.94-.05-1.88-.05-2.82-.07-.54-.1-1.09-.1-1.66v-1.66c0-1.14.02-2.25.05-3.32.03-1.07.05-2.18.05-3.32v-6.25c.07-.27.1-.54.1-.81v-4.08c0-.57-.03-1.16-.1-1.76v-4.33c0-.4.02-.79.05-1.16.03-.37.02-.72-.05-1.06v-2.57c0-.84-.07-1.7-.2-2.57,0-.27-.08-.54-.25-.81-.17-.27-.32-.54-.45-.81-.13-.27-.24-.44-.3-.5-.2-.47-.07-.81.4-1.01.2-.07.42-.1.65-.1h.65c.6,0,1.24.02,1.88.05.64.03,1.26.05,1.86.05.4,0,.81-.03,1.18-.1.37-.07.76-.1,1.16-.1,1.01.07,2.07.07,3.14,0,.54,0,1.06.05,1.56.15.52.1,1.04.15,1.58.15.74,0,1.46-.02,2.18-.05.71-.03,1.43-.05,2.17-.05h9.29c.81,0,1.65-.03,2.52-.1.81-.07,1.6-.08,2.37-.05.77.03,1.56.08,2.37.15h.96c.3,0,.62-.03.96-.1.6-.07,1.28,0,2.01.2.94.2,1.85.37,2.72.5.87.13,1.75.3,2.62.5,1.75.4,3.41.96,4.99,1.66,1.58.71,3.04,1.6,4.38,2.67.94.74,1.81,1.51,2.62,2.32.81.81,1.48,1.75,2.01,2.82.13.34.3.6.5.81.2.2.37.47.5.81.54,1.14,1.01,2.28,1.41,3.43.4,1.14.64,2.38.71,3.73.07.34.13.65.2.96.07.3.1.62.1.96.07.54.1,1.02.1,1.46v1.46c0,.54-.02,1.06-.05,1.56-.03.5-.08,1.02-.15,1.56-.07,1.41-.44,2.92-1.11,4.53-.54,1.48-1.24,2.85-2.12,4.13-.87,1.28-1.91,2.42-3.12,3.43-1.14,1.01-2.45,1.95-3.93,2.82-.54.34-1.07.62-1.61.86-.54.24-1.07.49-1.61.76.54,1.21,1.04,2.43,1.51,3.68.47,1.24.97,2.47,1.51,3.68l3.63,7.86c.47,1.07.91,2.12,1.31,3.12.4,1.01.84,2.05,1.31,3.12.27.54.52,1.06.76,1.56.23.5.45,1.02.65,1.56.13.34.27.64.4.91.13.27.27.54.4.81.47.81.94,1.54,1.41,2.22.27.34.54.67.81,1.01.27.34.54.67.81,1.01.13.13.34.47.6,1.01h-16.17c-1.85,0-3.71-.03-5.59-.1-.47,0-.92.02-1.36.05-.44.03-.89.05-1.36.05-.4,0-.71-.03-.91-.1-.6-.07-.84-.44-.71-1.11.2-.74.25-1.43.15-2.07-.1-.64-.29-1.29-.55-1.96-.67-1.48-1.34-2.94-2.02-4.38-.67-1.44-1.34-2.91-2.01-4.38-.13-.34-.25-.65-.35-.96-.1-.3-.22-.62-.35-.96-.07-.13-.1-.25-.1-.35s-.07-.22-.2-.35c-.34-.54-.6-1.13-.81-1.76-.2-.64-.44-1.26-.71-1.86-.27-.74-.57-1.48-.91-2.22-.34-.74-.67-1.48-1.01-2.22l-1.51-3.32c-.07-.27-.24-.67-.5-1.21-.13-.13-.24-.2-.3-.2h-4.74Z"/>
    <path class="cls-1" d="m264.21,108.64h-15.21c-.34,0-.57-.03-.71-.1-.67-.13-.84-.5-.5-1.11.27-.74.3-1.61.1-2.62l-2.12-6.95c-.13-.4-.29-.77-.45-1.11-.17-.34-.35-.67-.55-1.01,0-.13-.13-.2-.4-.2h-21.96c-.34,0-.54.13-.6.4-.54,1.75-1.04,3.44-1.51,5.09-.47,1.65-.97,3.31-1.51,4.99-.13.34-.12.71.05,1.11.17.4.39.71.65.91.07.07.1.13.1.2s.03.13.1.2c-.13.13-.27.2-.4.2-.4,0-.79-.02-1.16-.05-.37-.03-.72-.05-1.06-.05-1.88.07-3.76.1-5.64.1h-5.64c-.13,0-.3-.02-.5-.05-.2-.03-.37-.05-.5-.05-.47-.13-.64-.4-.5-.81.27-.6.5-1.23.71-1.86.2-.64.4-1.26.6-1.86.13-.34.29-.71.45-1.11.17-.4.32-.81.45-1.21.34-1.07.67-2.12,1.01-3.12.34-1.01.64-2.05.91-3.12.47-1.55.94-3.09,1.41-4.63.47-1.54.97-3.09,1.51-4.63.27-.74.49-1.44.65-2.12.17-.67.39-1.38.65-2.12.2-.74.42-1.49.65-2.27.24-.77.49-1.56.76-2.37.13-.67.29-1.34.45-2.02.17-.67.35-1.34.55-2.01.13-.47.3-.92.5-1.36.2-.44.37-.89.5-1.36.34-1.01.64-2.02.91-3.02.27-1.01.57-1.98.91-2.92.54-1.48.97-2.96,1.31-4.43.34-1.48.81-2.92,1.41-4.33.34-.81.59-1.63.76-2.47.17-.84.35-1.7.55-2.57.13-.27.22-.52.25-.76.03-.23.12-.49.25-.76.67-1.28,1.07-2.72,1.21-4.33.07-.13.1-.22.1-.25s.03-.12.1-.25c.47-.6.76-1.28.86-2.02.1-.74.29-1.48.55-2.22.13-.34.25-.67.35-1.01.1-.34.22-.67.35-1.01.27-.6.47-1.23.6-1.86.13-.64.13-1.29,0-1.96-.2-.67.1-1.04.91-1.11.6,0,1.21-.02,1.81-.05.6-.03,1.21-.05,1.81-.05,1.95,0,3.86.02,5.74.05,1.88.03,3.8.05,5.74.05.67,0,1.33-.02,1.96-.05.64-.03,1.26-.05,1.86-.05.34,0,.57.03.71.1.47.13.6.37.4.71-.34.81-.34,1.68,0,2.62.34,1.14.71,2.3,1.11,3.48.4,1.18.77,2.33,1.11,3.48.27.81.52,1.6.76,2.37.24.77.45,1.56.66,2.37.34.94.65,1.91.96,2.92.3,1.01.59,2.02.86,3.02.34,1.41.76,2.82,1.26,4.23.5,1.41.99,2.82,1.46,4.23.34,1.21.71,2.4,1.11,3.58.4,1.18.77,2.37,1.11,3.58l1.51,5.44c.13.47.29.91.45,1.31.17.4.32.81.45,1.21.2.6.37,1.21.5,1.81.13.6.3,1.21.5,1.81.13.54.32,1.07.55,1.61.23.54.42,1.07.55,1.61.27.87.52,1.71.76,2.52s.49,1.61.76,2.42c.27.87.54,1.73.81,2.57.27.84.54,1.7.81,2.57.34,1.01.62,2.02.86,3.02.23,1.01.52,2.01.86,3.02.2.67.44,1.33.71,1.96.27.64.47,1.29.6,1.96.2.54.4,1.04.6,1.51.2.47.47.94.81,1.41.47.67.27,1.01-.6,1.01h-5.14Z"/>
    <path class="cls-1" d="m192.98,71.77c.54.54,1.07,1.02,1.61,1.46.54.44,1.07.89,1.61,1.36.27.27.44.5.5.71.54.94,1.11,1.85,1.71,2.72.6.87,1.07,1.81,1.41,2.82.27.81.49,1.63.65,2.47.17.84.25,1.73.25,2.67,0,.34.02.65.05.96.03.3.05.62.05.96.07,1.01.02,2-.15,2.97-.17.97-.42,1.96-.76,2.97-.34.94-.72,1.85-1.16,2.72-.44.87-.96,1.68-1.56,2.42-1.14,1.54-2.47,2.89-3.98,4.03-1.51,1.14-3.14,2.12-4.89,2.92-1.21.54-2.43.99-3.68,1.36-1.24.37-2.54.62-3.88.76-.94.13-1.86.25-2.77.35-.91.1-1.83.15-2.77.15-3.49.07-6.99.1-10.48.1h-27.1c-.67-.07-.87-.47-.6-1.21.27-.4.44-.74.5-1.01.2-.6.3-1.21.3-1.81.07-.74.12-1.51.15-2.32.03-.81.08-1.58.15-2.32,0-.34-.02-.69-.05-1.06-.03-.37-.05-.72-.05-1.06-.07-.34-.08-.69-.05-1.06.03-.37.05-.72.05-1.06.13-1.14.18-2.23.15-3.27-.03-1.04-.12-2.13-.25-3.27,0-.13-.02-.22-.05-.25-.03-.03-.05-.12-.05-.25.07-.87.12-1.73.15-2.57.03-.84.05-1.73.05-2.67.07-.94.08-1.9.05-2.87-.03-.97-.05-1.93-.05-2.87v-4.43c-.07-1.14-.1-2.25-.1-3.32v-3.32c-.13-1.68-.13-3.39,0-5.14.07-1.01.12-2.01.15-3.02.03-1.01-.02-2.01-.15-3.02-.07-.07-.1-.2-.1-.4.2-1.68.27-3.34.2-4.99-.07-1.65-.03-3.31.1-4.99v-2.07c0-.64-.03-1.33-.1-2.07,0-.54-.02-1.02-.05-1.46-.03-.44-.08-.92-.15-1.46v-.3c.27-1.21-.07-2.35-1.01-3.43-.07-.13-.13-.27-.2-.4-.07-.13-.07-.27,0-.4.2-.2.47-.3.81-.3.54,0,1.09.02,1.66.05.57.03,1.13.02,1.66-.05.74,0,1.51-.02,2.32-.05.81-.03,1.58-.08,2.32-.15h.2c.67.07,1.34.1,2.02.1s1.34.03,2.01.1h2.12c.81,0,1.61.02,2.42.05.81.03,1.58.02,2.32-.05.81-.13,1.61-.2,2.42-.2s1.61.03,2.42.1c.47.07.92.12,1.36.15.44.03.89.05,1.36.05.54,0,1.09-.02,1.66-.05.57-.03,1.12-.08,1.66-.15.27,0,.5.03.71.1.81.2,1.65.2,2.52,0h.2c1.54.13,3.07.2,4.58.2s3.01.24,4.48.71c.81.27,1.61.5,2.42.71.81.2,1.61.44,2.42.71.27.07.5.15.71.25.2.1.44.22.71.35.4.2.81.4,1.21.6.4.2.77.44,1.11.71.34.2.65.4.96.6.3.2.62.4.96.6l1.21.91c.27.34.54.62.81.86.27.24.5.52.71.86.47.54.91,1.07,1.31,1.61.4.54.77,1.07,1.11,1.61.27.34.47.72.6,1.16.13.44.3.86.5,1.26.34.81.66,1.61.96,2.42.3.81.52,1.68.65,2.62.07.54.12,1.11.15,1.71.03.6.08,1.18.15,1.71.13,1.21.13,2.4,0,3.58-.13,1.18-.3,2.33-.5,3.48-.2,1.01-.52,1.95-.96,2.82-.44.87-.86,1.78-1.26,2.72-.34.74-.76,1.43-1.26,2.07-.5.64-1.02,1.23-1.56,1.76Z"/>
    <path class="cls-1" d="m645.44,44.77v22.77c.94.07,1.85.1,2.72.1h2.62c.94,0,1.86.02,2.77.05.91.03,1.83.08,2.77.15.81,0,1.61-.02,2.42-.05.81-.03,1.61-.12,2.42-.25h2.77c.37,0,.76.03,1.16.1h1.21c.81.07,1.21.57,1.21,1.49.07,1.46.07,2.94,0,4.4v4.1c0,.2-.07.5-.2.89-.07.47-.4.71-1.01.71-1.75,0-3.46-.02-5.14-.05-1.68-.03-3.39-.05-5.14-.05s-3.44.02-5.09.05c-1.65.03-3.34.05-5.09.05h-.4v17.53c1.14.34,2.25.45,3.32.35,1.07-.1,2.15-.12,3.22-.05.74.07,1.44.1,2.12.1s1.38-.07,2.12-.2c.34-.07.69-.05,1.06.05.37.1.76.15,1.16.15.54,0,1.11-.03,1.71-.1.6-.07,1.18-.1,1.71-.1,1.28,0,2.54-.02,3.78-.05,1.24-.03,2.47.02,3.68.15.4.07.81.07,1.21,0s.81-.1,1.21-.1c.34-.07.62-.1.86-.1h.86c.4.07.71.27.91.6.2.34.24.72.1,1.13-.4,1.14-.79,2.32-1.16,3.51-.37,1.18-.76,2.38-1.16,3.59-.2.62-.47,1.29-.81,2.05-.2.6-.6.91-1.21.91h-25.89c-.54,0-1.11-.02-1.71-.05-.6-.03-1.21-.05-1.81-.05-.54,0-1.04.02-1.51.05-.47.03-.97.05-1.51.05h-11.59c-.47,0-.84-.03-1.11-.1-.54-.07-.71-.37-.5-.91,0-.07.07-.17.2-.3.47-.74.71-1.61.71-2.62.2-1.61.3-3.22.3-4.84,0-.34-.02-.67-.05-1.01-.03-.34-.05-.67-.05-1.01v-1.06c0-.37.03-.72.1-1.06.13-1.14.17-2.23.1-3.27-.07-1.04-.17-2.13-.3-3.27,0-.13-.02-.22-.05-.25-.03-.03-.05-.12-.05-.25.07-.74.08-1.48.05-2.22-.03-.74.02-1.48.15-2.22.2-2.42.2-4.84,0-7.25-.07-.4-.08-.81-.05-1.21.03-.4.02-.77-.05-1.11v-7.25c0-.74-.02-1.44-.05-2.12-.03-.67-.02-1.38.05-2.12,0-.94.02-1.88.05-2.82.03-.94.05-1.88.05-2.82.07-.2.08-.4.05-.6-.03-.2-.05-.4-.05-.6-.2-.94-.2-1.88,0-2.82.07-.27.1-.54.1-.81v-.81c0-.67-.02-1.33-.05-1.96-.03-.64-.05-1.29-.05-1.96v-2.17c0-.71.03-1.43.1-2.17v-1.46c0-.44-.03-.89-.1-1.36,0-.54-.02-1.04-.05-1.51-.03-.47-.08-.97-.15-1.51,0-.13.02-.23.05-.3.03-.07.05-.17.05-.3,0-1.07-.3-1.91-.91-2.52-.07-.13-.12-.22-.15-.25-.03-.03-.08-.12-.15-.25-.2-.34-.27-.57-.2-.71.07-.2.3-.3.71-.3.13-.07.3-.08.5-.05.2.03.37.05.5.05,1.14.07,2.3.1,3.48.1s2.33-.07,3.48-.2c.13-.07.34-.1.6-.1.74.07,1.49.12,2.27.15.77.03,1.56.05,2.37.05,1.01,0,2.02.02,3.02.05,1.01.03,2.01.02,3.02-.05.81-.13,1.61-.2,2.42-.2s1.61.03,2.42.1c.54.07,1.02.12,1.46.15.44.03.89.05,1.36.05.34,0,.69-.03,1.06-.1.37-.07.72-.1,1.06-.1.47,0,.92.02,1.36.05.44.03.89.05,1.36.05h5.04c.81,0,1.63-.02,2.47-.05.84-.03,1.66-.05,2.47-.05.34,0,.71.02,1.11.05.4.03.77.02,1.11-.05.94-.13,1.61-.07,2.01.2.4.27.77.89,1.11,1.83.47,1.36.91,2.67,1.31,3.96.4,1.29.84,2.6,1.31,3.96.34,1.16-.07,1.73-1.21,1.73-.54,0-1.06-.02-1.56-.05-.5-.03-1.02-.05-1.56-.05-.34,0-.69.02-1.06.05-.37.03-.72.05-1.06.05-2.15,0-4.33-.02-6.55-.05-2.22-.03-4.4-.05-6.55-.05h-7.56c-.34,0-.65.02-.96.05-.3.03-.62.05-.96.05Z"/>
    <path class="cls-1" d="m582.6,109.85c-2.17.13-4.08,0-5.76-.4-.81-.13-1.61-.25-2.38-.35-.77-.1-1.53-.25-2.27-.45-1.81-.54-3.58-1.16-5.29-1.86-1.71-.71-3.27-1.73-4.69-3.07-.34-.34-.72-.62-1.16-.86-.44-.24-.82-.52-1.16-.86-.74-.74-1.39-1.49-1.96-2.27-.57-.77-1.12-1.6-1.66-2.47-.94-1.48-1.73-2.97-2.37-4.48s-1.13-3.11-1.46-4.79c-.13-.74-.27-1.44-.4-2.12-.13-.67-.27-1.38-.4-2.12-.07-.13-.08-.24-.05-.3.03-.07.05-.17.05-.3-.07-.4-.1-.79-.1-1.16s-.03-.76-.1-1.16c0-.67.03-1.18.1-1.51,0-.74.02-1.43.05-2.07.03-.64.05-1.33.05-2.07.07-.81.1-1.63.1-2.47v-2.47c-.07-1.21-.12-2.4-.15-3.58-.03-1.18-.05-2.33-.05-3.48v-1.81c.07-1.21.12-2.4.15-3.58.03-1.18.02-2.37-.05-3.58-.07-1.14-.08-2.25-.05-3.32.03-1.07.05-2.18.05-3.32,0-.74-.02-1.51-.05-2.32-.03-.81-.05-1.58-.05-2.32v-4.33c0-.74-.07-1.44-.2-2.12-.13-.67-.4-1.31-.81-1.91-.34-.47-.47-.77-.4-.91.07-.13.37-.3.91-.5.54-.13,1.07-.2,1.61-.2s1.07.03,1.61.1h14.21c.67,0,1.31.02,1.91.05.6.03,1.24.05,1.91.05h.4c.27.13.37.34.3.6-.13.13-.25.3-.35.5-.1.2-.22.37-.35.5-.54.74-.81,1.65-.81,2.72-.07,1.95-.1,3.91-.1,5.89v21.01c.07,2.15.1,4.33.1,6.55v6.55c0,1.41-.02,2.8-.05,4.18-.03,1.38-.02,2.77.05,4.18,0,.47.03.94.1,1.41.07.47.17.94.3,1.41.2,1.28.6,2.42,1.21,3.43.6,1.01,1.38,1.95,2.32,2.82.54.6,1.28,1.21,2.22,1.81.87.4,1.76.74,2.67,1.01.91.27,1.86.3,2.87.1.34-.07.65-.08.96-.05.3.03.62.02.96-.05,1.28,0,2.42-.5,3.43-1.51.27-.27.6-.5,1.01-.71.6-.4,1.11-.91,1.51-1.51.2-.4.47-.77.81-1.11.54-.6.96-1.24,1.26-1.91.3-.67.45-1.41.45-2.22,0-.4.05-.79.15-1.16.1-.37.18-.72.25-1.06.34-1.41.4-2.75.2-4.03-.07-.34-.08-.64-.05-.91.03-.27.05-.54.05-.81v-3.22c0-.81.02-1.59.05-2.37.03-.77.05-1.53.05-2.27,0-.2-.02-.39-.05-.55-.03-.17-.05-.35-.05-.55v-2.52c0-.2.02-.4.05-.6.03-.2.05-.37.05-.5-.07-.87-.07-1.71,0-2.52.07-.34.08-.64.05-.91-.03-.27-.05-.57-.05-.91v-3.63c0-.67-.03-1.33-.1-1.96-.07-.64-.1-1.29-.1-1.96,0-.81.02-1.61.05-2.42.03-.81.05-1.58.05-2.32.07-1.07.08-2.12.05-3.12-.03-1.01-.05-2.01-.05-3.02.07-.54.12-1.11.15-1.71.03-.6-.02-1.18-.15-1.71-.07-.54-.08-1.06-.05-1.56.03-.5.08-1.02.15-1.56.2-1.95-.35-3.59-1.65-4.94-.27-.13-.34-.34-.2-.6,0-.07.13-.17.4-.3h.2c1.01,0,2.03.02,3.07.05,1.04.03,2.07.05,3.09.05.27,0,.52-.02.76-.05.24-.03.49-.05.76-.05h13.01c.2.07.54.1,1.01.1.81.07,1.01.44.6,1.11-.13.27-.29.5-.45.71-.17.2-.32.47-.45.81-.2.54-.3,1.04-.3,1.51-.07.81-.08,1.61-.05,2.42.03.81.05,1.61.05,2.42v31.94c0,2.55-.03,5.1-.1,7.66,0,.74-.03,1.44-.1,2.12-.07.67-.17,1.38-.3,2.12-.2,1.81-.59,3.56-1.16,5.24-.57,1.68-1.26,3.32-2.07,4.94-.49.94-1.02,1.8-1.63,2.57-.6.77-1.24,1.53-1.91,2.27-.81.87-1.65,1.65-2.52,2.32-.87.67-1.8,1.31-2.74,1.91-1.01.6-2.05,1.16-3.12,1.66-1.07.5-2.2.92-3.34,1.26-1.61.47-3.36.87-5.24,1.21-2.57.4-4.99.57-7.27.5Z"/>
    <path class="cls-3" d="m523.93,69.45c.2-1.01.2-1.98,0-2.92-.2-.94-.37-1.88-.5-2.82-.13-.54-.22-1.06-.25-1.56-.03-.5-.12-1.02-.25-1.56-.13-.67-.29-1.33-.45-1.96-.17-.64-.35-1.26-.55-1.86-.13-.47-.32-.92-.55-1.36s-.42-.89-.55-1.36c-.34-.87-.71-1.71-1.11-2.52-.4-.81-.91-1.55-1.51-2.22-.27-.34-.52-.64-.76-.91-.23-.27-.49-.54-.76-.81-.54-.54-1.11-1.01-1.71-1.41-.94-.54-1.91-.94-2.92-1.21-1.01-.27-2.08-.37-3.22-.3-1.95.2-3.66.77-5.14,1.71-1.01.67-1.86,1.46-2.57,2.37-.71.91-1.36,1.86-1.96,2.87-1.14,2.01-2,4.1-2.57,6.25-.57,2.15-1.06,4.37-1.46,6.65-.13,1.01-.22,2.01-.25,3.02-.03,1.01-.08,2.02-.15,3.02,0,.81.02,1.59.05,2.37.03.77.08,1.53.15,2.27,0,.34.07.84.2,1.51.13.6.25,1.21.35,1.81.1.6.22,1.21.35,1.81.13,1.01.34,1.98.6,2.92.27.94.57,1.88.91,2.82.27.81.6,1.58,1.01,2.32.4.74.81,1.48,1.21,2.22.54.81,1.09,1.58,1.66,2.32.57.74,1.26,1.38,2.07,1.91.74.54,1.44.96,2.12,1.26.67.3,1.41.49,2.22.55.6.07,1.19.1,1.76.1s1.12.03,1.66.1c.13,0,.4-.07.81-.2,2.42-.67,4.43-1.98,6.04-3.93.67-.81,1.24-1.61,1.71-2.42,1.07-1.68,1.91-3.59,2.52-5.74.27-1.07.55-2.13.86-3.17.3-1.04.52-2.13.65-3.27.13-.94.24-1.9.3-2.87.07-.97.13-1.96.2-2.97,0-.47-.02-.94-.05-1.41-.03-.47-.08-.94-.15-1.41Z"/>
    <path class="cls-1" d="m443.53,44.77v22.77c.94.07,1.85.1,2.72.1h2.62c.94,0,1.86.02,2.77.05.91.03,1.83.08,2.77.15.81,0,1.61-.02,2.42-.05.81-.03,1.61-.12,2.42-.25h2.77c.37,0,.76.03,1.16.1h1.21c.81.07,1.21.57,1.21,1.49.07,1.46.07,2.94,0,4.4v4.1c0,.2-.07.5-.2.89-.07.47-.4.71-1.01.71-1.75,0-3.46-.02-5.14-.05-1.68-.03-3.39-.05-5.14-.05s-3.44.02-5.09.05c-1.65.03-3.34.05-5.09.05h-.4v17.53c1.14.34,2.25.45,3.32.35,1.07-.1,2.15-.12,3.22-.05.74.07,1.44.1,2.12.1s1.38-.07,2.12-.2c.34-.07.69-.05,1.06.05.37.1.76.15,1.16.15.54,0,1.11-.03,1.71-.1.6-.07,1.18-.1,1.71-.1,1.28,0,2.54-.02,3.78-.05,1.24-.03,2.47.02,3.68.15.4.07.81.07,1.21,0,.4-.07.81-.1,1.21-.1.34-.07.62-.1.86-.1h.86c.4.07.71.27.91.6.2.34.24.72.1,1.13-.4,1.14-.79,2.32-1.16,3.51-.37,1.18-.76,2.38-1.16,3.59-.2.62-.47,1.29-.81,2.05-.2.6-.6.91-1.21.91h-25.89c-.54,0-1.11-.02-1.71-.05-.6-.03-1.21-.05-1.81-.05-.54,0-1.04.02-1.51.05-.47.03-.97.05-1.51.05h-11.59c-.47,0-.84-.03-1.11-.1-.54-.07-.71-.37-.5-.91,0-.07.07-.17.2-.3.47-.74.71-1.61.71-2.62.2-1.61.3-3.22.3-4.84,0-.34-.02-.67-.05-1.01-.03-.34-.05-.67-.05-1.01v-1.06c0-.37.03-.72.1-1.06.13-1.14.17-2.23.1-3.27-.07-1.04-.17-2.13-.3-3.27,0-.13-.02-.22-.05-.25s-.05-.12-.05-.25c.07-.74.08-1.48.05-2.22-.03-.74.02-1.48.15-2.22.2-2.42.2-4.84,0-7.25-.07-.4-.08-.81-.05-1.21.03-.4.02-.77-.05-1.11v-7.25c0-.74-.02-1.44-.05-2.12-.03-.67-.02-1.38.05-2.12,0-.94.02-1.88.05-2.82.03-.94.05-1.88.05-2.82.07-.2.08-.4.05-.6-.03-.2-.05-.4-.05-.6-.2-.94-.2-1.88,0-2.82.07-.27.1-.54.1-.81v-.81c0-.67-.02-1.33-.05-1.96-.03-.64-.05-1.29-.05-1.96v-2.17c0-.71.03-1.43.1-2.17v-1.46c0-.44-.03-.89-.1-1.36,0-.54-.02-1.04-.05-1.51-.03-.47-.08-.97-.15-1.51,0-.13.02-.23.05-.3.03-.07.05-.17.05-.3,0-1.07-.3-1.91-.91-2.52-.07-.13-.12-.22-.15-.25s-.08-.12-.15-.25c-.2-.34-.27-.57-.2-.71.07-.2.3-.3.71-.3.13-.07.3-.08.5-.05.2.03.37.05.5.05,1.14.07,2.3.1,3.48.1s2.33-.07,3.48-.2c.13-.07.34-.1.6-.1.74.07,1.49.12,2.27.15.77.03,1.56.05,2.37.05,1.01,0,2.02.02,3.02.05,1.01.03,2.01.02,3.02-.05.81-.13,1.61-.2,2.42-.2s1.61.03,2.42.1c.54.07,1.02.12,1.46.15.44.03.89.05,1.36.05.34,0,.69-.03,1.06-.1.37-.07.72-.1,1.06-.1.47,0,.92.02,1.36.05.44.03.89.05,1.36.05h5.04c.81,0,1.63-.02,2.47-.05.84-.03,1.66-.05,2.47-.05.34,0,.71.02,1.11.05.4.03.77.02,1.11-.05.94-.13,1.61-.07,2.02.2.4.27.77.89,1.11,1.83.47,1.36.91,2.67,1.31,3.96.4,1.29.84,2.6,1.31,3.96.34,1.16-.07,1.73-1.21,1.73-.54,0-1.06-.02-1.56-.05-.5-.03-1.02-.05-1.56-.05-.34,0-.69.02-1.06.05-.37.03-.72.05-1.06.05-2.15,0-4.33-.02-6.55-.05-2.22-.03-4.4-.05-6.55-.05h-7.56c-.34,0-.65.02-.96.05-.3.03-.62.05-.96.05Z"/>
    <path class="cls-3" d="m372.71,97.06c.47,0,.81.03,1.01.1.27,0,.54.03.81.1.27.07.57.1.91.1h6.95c.34-.07.7-.1,1.11-.1h1.21c.2,0,.39.02.55.05.17.03.35.05.55.05.6-.07,1.19-.13,1.76-.2.57-.07,1.13-.17,1.66-.3.47-.13.91-.25,1.31-.35.4-.1.81-.22,1.21-.35.34-.13.62-.27.86-.42.24-.13.49-.27.76-.4,1.54-.87,2.49-1.98,2.82-3.34.27-.94.45-1.9.55-2.89.1-.97.08-1.96-.05-2.99-.2-1.28-.6-2.4-1.21-3.39-.6-.97-1.48-1.76-2.62-2.38-.87-.47-1.73-.77-2.57-.91-.84-.13-1.73-.23-2.67-.3-1.28,0-2.54.02-3.78.05-1.24.03-2.5.05-3.78.05h-7.35v17.83Z"/>
    <path class="cls-3" d="m372.71,67.44c.34,0,.69.02,1.06.05.37.03.72.05,1.06.05.94.07,1.91.1,2.92.1h6.95c.67.07,1.29-.03,1.86-.3.57-.27,1.13-.47,1.66-.6,1.48-.39,2.64-1.06,3.48-2,.84-.92,1.49-2.05,1.96-3.39.13-.34.22-.67.25-1.04.03-.37.12-.76.25-1.16.4-1.66.47-3.26.2-4.79-.2-1.07-.5-2.17-.91-3.29-.47-1.53-1.41-2.84-2.82-3.9-2.35-1.66-4.97-2.47-7.86-2.4h-4.03c-1.34,0-2.69.03-4.03.1h-2.01v22.57Z"/>
    <path class="cls-3" d="m301.68,67.64h.71c.4.13.81.2,1.21.2h1.21c.67-.07,1.33-.12,1.96-.15.64-.03,1.26-.05,1.86-.05.87.07,1.73.12,2.57.15.84.03,1.66.02,2.47-.05.54,0,1.04-.07,1.51-.2.47-.13.97-.27,1.51-.4.27-.07.5-.13.71-.2.2-.07.44-.17.71-.3.47-.2.89-.45,1.26-.76.37-.3.76-.62,1.16-.96,1.68-1.61,2.52-3.56,2.52-5.84,0-.2.03-.34.1-.4.34-1.01.45-2.01.35-3.02-.1-1.01-.22-1.98-.35-2.92-.13-.74-.4-1.43-.81-2.07-.4-.64-.84-1.26-1.31-1.86-.74-.94-1.58-1.66-2.52-2.17-.94-.5-1.98-.92-3.12-1.26-.87-.27-1.73-.42-2.57-.45-.84-.03-1.73-.08-2.67-.15h-8.46v22.87Z"/>
    <path class="cls-3" d="m241.14,83.76c-.07-.27-.13-.5-.2-.71-.07-.2-.13-.44-.2-.71-.13-.6-.25-1.21-.35-1.81-.1-.6-.32-1.18-.65-1.71-.13-.27-.22-.54-.25-.81-.03-.27-.12-.54-.25-.81-.07-.34-.12-.64-.15-.91-.03-.27-.12-.54-.25-.81-.27-.54-.47-1.04-.6-1.51s-.27-.97-.4-1.51c-.27-1.07-.55-2.13-.86-3.17-.3-1.04-.62-2.1-.96-3.17-.13-.47-.32-.94-.55-1.41-.23-.47-.42-.97-.55-1.51-.13-.34-.22-.67-.25-1.01-.03-.34-.12-.67-.25-1.01-.13-.47-.3-.91-.5-1.31-.2-.4-.4-.84-.6-1.31-1.28,4.23-2.55,8.43-3.83,12.59-1.28,4.16-2.55,8.36-3.83,12.59h1.31c.34.07.81.1,1.41.1h1.51c.54,0,1.07.02,1.61.05.54.03,1.07.05,1.61.05.34,0,.64-.02.91-.05.27-.03.57-.05.91-.05.67,0,1.33.02,1.96.05.64.03,1.29.05,1.96.05.34,0,.71-.03,1.11-.1.4-.07.81-.1,1.21-.1Z"/>
    <path class="cls-3" d="m158.02,97.06c.47,0,.81.03,1.01.1.27,0,.54.03.81.1.27.07.57.1.91.1h6.95c.34-.07.71-.1,1.11-.1h1.21c.2,0,.39.02.55.05.17.03.35.05.55.05.6-.07,1.19-.13,1.76-.2.57-.07,1.12-.17,1.66-.3.47-.13.91-.25,1.31-.35.4-.1.81-.22,1.21-.35.34-.13.62-.27.86-.42.24-.13.49-.27.76-.4,1.54-.87,2.49-1.98,2.82-3.34.27-.94.45-1.9.55-2.89.1-.97.08-1.96-.05-2.99-.2-1.28-.6-2.4-1.21-3.39-.6-.97-1.48-1.76-2.62-2.38-.87-.47-1.73-.77-2.57-.91-.84-.13-1.73-.23-2.67-.3-1.28,0-2.54.02-3.78.05-1.24.03-2.5.05-3.78.05h-7.35v17.83Z"/>
    <path class="cls-3" d="m158.02,67.44c.34,0,.69.02,1.06.05.37.03.72.05,1.06.05.94.07,1.91.1,2.92.1h6.95c.67.07,1.29-.03,1.86-.3.57-.27,1.12-.47,1.66-.6,1.48-.39,2.64-1.06,3.48-2,.84-.92,1.49-2.05,1.96-3.39.13-.34.22-.67.25-1.04.03-.37.12-.76.25-1.16.4-1.66.47-3.26.2-4.79-.2-1.07-.5-2.17-.91-3.29-.47-1.53-1.41-2.84-2.82-3.9-2.35-1.66-4.97-2.47-7.86-2.4h-4.03c-1.34,0-2.69.03-4.03.1h-2.01v22.57Z"/>
    <path class="cls-1" d="m372.41,179.17l-.6-.6c-.2.2-.3.37-.3.5.07.13.13.25.2.35.07.1.13.22.2.35.2-.2.37-.4.5-.6Z"/>
    <path class="cls-1" d="m377.55,162.04c0,.6-.02,1.21-.05,1.81-.03.6-.02,1.21.05,1.81.13.94.25,1.86.35,2.77.1.91.29,1.83.55,2.77.13.74.34,1.44.6,2.12.27.67.5,1.34.71,2.01.87,2.55,2.15,4.63,3.83,6.25.54.54,1.06,1.06,1.56,1.56.5.5,1.02,1.02,1.56,1.56.27.27.54.47.81.6.27.13.57.27.91.4.47.27.92.5,1.36.71.44.2.89.4,1.36.6.54.2,1.07.32,1.61.35.54.03,1.07.02,1.61-.05.54-.07,1.11-.07,1.71,0,.6.07,1.28-.07,2.02-.4l1.81-.6c.87-.2,1.65-.6,2.32-1.21.34-.27.65-.52.96-.76.3-.23.62-.49.96-.76.74-.4,1.34-.89,1.81-1.46.47-.57.87-1.23,1.21-1.96.34-.54.64-1.09.91-1.66.27-.57.54-1.13.81-1.66.13-.34.24-.64.3-.91.07-.27.13-.57.2-.91.2-.67.6-.87,1.21-.6.67.27,1.31.54,1.91.81.6.27,1.21.54,1.81.81l4.53,2.12c.81.34,1.26.64,1.36.91.1.27-.02.81-.35,1.61-1.01,2.62-2.32,5.04-3.93,7.25-.47.67-.96,1.31-1.46,1.91-.5.6-1.02,1.21-1.56,1.81-1.54,1.75-3.43,3.26-5.64,4.53-2.55,1.54-5.31,2.62-8.26,3.22-2.49.4-4.87.57-7.15.5-1.28,0-2.45-.1-3.53-.3-1.34-.13-2.65-.34-3.93-.6-1.28-.27-2.52-.64-3.73-1.11-2.49-.81-4.7-1.95-6.65-3.43-.4-.27-.81-.5-1.21-.71-.4-.2-.81-.47-1.21-.81-.27-.2-.52-.4-.76-.6-.24-.2-.49-.44-.76-.71l-2.42-2.42c-.34-.4-.65-.81-.96-1.21-.3-.4-.62-.77-.96-1.11-.74-.87-1.38-1.8-1.91-2.77-.54-.97-1.07-1.93-1.61-2.87-.6-1.14-1.11-2.32-1.51-3.53-.4-1.21-.81-2.42-1.21-3.63-.34-.81-.55-1.63-.65-2.47-.1-.84-.22-1.7-.35-2.57l-.91-5.44v-.6c.13-.74.2-1.46.2-2.17s-.07-1.43-.2-2.17c-.07-.34-.07-.72,0-1.16.07-.44.13-.82.2-1.16.07-.47.15-.92.25-1.36.1-.44.15-.86.15-1.26.07-.87.18-1.7.35-2.47.17-.77.39-1.53.65-2.27.13-.34.24-.65.3-.96.07-.3.17-.62.3-.96.2-.6.47-1.24.81-1.91.27-.54.5-1.11.7-1.71.2-.6.47-1.18.81-1.71.34-.74.69-1.46,1.06-2.17.37-.71.79-1.39,1.26-2.07.27-.47.57-.89.91-1.26.34-.37.67-.72,1.01-1.06.67-.74,1.31-1.44,1.91-2.12.6-.67,1.21-1.34,1.81-2.01.07-.07.1-.1.1-.1.87-.54,1.66-1.16,2.37-1.86.71-.7,1.53-1.29,2.47-1.76l.91-.6c.6-.6,1.28-1.07,2.01-1.41.74-.34,1.51-.6,2.32-.81.07-.07.13-.1.2-.1.81-.54,1.66-.86,2.57-.96.91-.1,1.8-.29,2.67-.55.4-.13.79-.25,1.16-.35.37-.1.72-.22,1.06-.35.27-.07.5-.08.71-.05.2.03.44.05.71.05.34-.07.84-.1,1.51-.1.13,0,.27-.02.4-.05.13-.03.27-.05.4-.05,1.48,0,2.94.02,4.38.05,1.44.03,2.9.22,4.38.55.94.2,1.85.44,2.72.71.87.27,1.78.54,2.72.81.27.07.49.13.65.2.17.07.35.17.55.3.4.2.82.4,1.26.6.44.2.86.44,1.26.71.27.13.54.29.81.45.27.17.5.32.71.45.34.2.6.4.81.6.2.2.44.4.71.6,1.21.74,2.18,1.68,2.92,2.82.34.54.72,1.09,1.16,1.66.44.57.86,1.13,1.26,1.66.2.27.39.54.55.81s.32.57.45.91c.2.54.4,1.06.6,1.56.2.5.4,1.02.6,1.56.34.81.13,1.54-.6,2.22-.47.4-.92.79-1.36,1.16-.44.37-.89.72-1.36,1.06l-3.32,2.42c-.87.6-1.54.4-2.01-.6-.34-.74-.67-1.51-1.01-2.32-.34-.81-.77-1.58-1.31-2.32-.94-1.34-2.05-2.44-3.32-3.27-1.28-.84-2.69-1.53-4.23-2.07-1.07-.34-2.35-.57-3.83-.71-1.21-.13-2.38-.08-3.53.15-1.14.24-2.28.55-3.43.96-.81.27-1.56.62-2.27,1.06-.71.44-1.39.92-2.07,1.46-1.41,1.14-2.59,2.43-3.53,3.88-.94,1.44-1.78,2.94-2.52,4.48-.54,1.28-.99,2.55-1.36,3.83-.37,1.28-.69,2.59-.96,3.93-.27,1.28-.47,2.55-.6,3.83-.13,1.28-.13,2.55,0,3.83Z"/>
    <path class="cls-1" d="m336.45,198.71h-3.83c-1.21,0-1.48-.5-.81-1.51.4-.81.6-1.65.6-2.52.2-1.61.3-3.16.3-4.63,0-.34-.02-.69-.05-1.06-.03-.37-.05-.72-.05-1.06v-1.06c0-.37.03-.72.1-1.06.13-1.14.17-2.23.1-3.27-.07-1.04-.17-2.13-.3-3.27v-3.12c0-.6.03-1.21.1-1.81.2-2.42.2-4.84,0-7.25-.07-.4-.1-.79-.1-1.16v-8.41c0-.74-.02-1.46-.05-2.17-.03-.7-.02-1.43.05-2.17,0-.94.02-1.85.05-2.72.03-.87.05-1.78.05-2.72.07-.2.08-.42.05-.65-.03-.24-.05-.45-.05-.65-.2-.94-.2-1.91,0-2.92.07-.27.1-.74.1-1.41,0-.74-.02-1.44-.05-2.12-.03-.67-.05-1.38-.05-2.12v-2.07c0-.64.03-1.33.1-2.07v-1.41c0-.47-.03-.94-.1-1.41,0-.54-.02-1.06-.05-1.56-.03-.5-.08-1.02-.15-1.56,0-.13.02-.25.05-.35.03-.1.05-.22.05-.35,0-.94-.27-1.71-.81-2.32-.27-.27-.44-.5-.5-.71-.2-.47-.07-.74.4-.81h1.21c1.14,0,2.28-.02,3.43-.05,1.14-.03,2.28-.05,3.43-.05.13,0,.22-.02.25-.05.03-.03.08-.05.15-.05.74.07,1.44.1,2.12.1s1.34.03,2.01.1h6.85c.4,0,.82-.02,1.26-.05.44-.03.86-.08,1.26-.15.6,0,.74.27.4.81-.2.34-.4.65-.6.96-.2.3-.37.62-.5.96-.2.54-.3,1.04-.3,1.51-.07,1.95-.1,3.86-.1,5.74v27.81c.07,1.41.08,2.84.05,4.28-.03,1.44-.05,2.87-.05,4.28v24.78c0,1.41.44,2.55,1.31,3.43.13.13.22.29.25.45.03.17.12.32.25.45-.13,0-.3.03-.5.1-.2.07-.37.1-.5.1-.94,0-1.9-.02-2.87-.05-.97-.03-1.93-.05-2.87-.05-.54,0-1.04.02-1.51.05-.47.03-.97.05-1.51.05h-8.06Z"/>
    <path class="cls-1" d="m296.65,186.83c1.34.07,2.65.1,3.93.1h3.83c.74,0,1.48-.02,2.22-.05.74-.03,1.48-.05,2.22-.05.81,0,1.61.02,2.42.05.81.03,1.58.08,2.32.15.34,0,.64-.02.91-.05.27-.03.57-.05.91-.05.27-.07.52-.08.76-.05.24.03.49.05.76.05.34,0,.69.02,1.06.05.37.03.72.05,1.06.05h3.43c.34-.07.62-.12.86-.15.23-.03.52-.08.86-.15.13,0,.22-.02.25-.05.03-.03.12-.05.25-.05,1.07-.2,1.44.2,1.11,1.23-.34,1.14-.71,2.32-1.11,3.49-.4,1.19-.77,2.37-1.11,3.51-.13.34-.25.71-.35,1.07-.1.37-.22.72-.35,1.06-.4.96-1.04,1.43-1.91,1.43h-8.56c-1.54.07-3.06.1-4.53.1h-29.82c-.6,0-1.24-.03-1.91-.1h-.6c-.34-.13-.44-.34-.3-.6.07-.13.13-.27.2-.4.07-.13.13-.27.2-.4.54-.54.81-1.28.81-2.22.07-.74.13-1.49.2-2.27.07-.77.07-1.53,0-2.27-.13-1.07-.13-2.13,0-3.17.13-1.04.2-2.1.2-3.17,0-.94-.02-1.83-.05-2.67-.03-.84-.08-1.73-.15-2.67v-7.96c0-.74.03-1.44.1-2.12.07-.67.1-1.38.1-2.12,0-.94-.02-1.88-.05-2.82-.03-.94-.08-1.88-.15-2.82v-6.55c0-1.07.03-2.18.1-3.32v-6.25c0-.27.02-.54.05-.81.03-.27.05-.57.05-.91v-.3c-.07-1.54-.1-3.06-.1-4.53s-.03-2.99-.1-4.53v-.76c0-.23.03-.52.1-.86.13-.94.15-1.88.05-2.82-.1-.94-.22-1.88-.35-2.82,0-.27-.08-.54-.25-.81-.17-.27-.32-.57-.45-.91-.07-.07-.17-.24-.3-.5-.27-.47-.13-.77.4-.91.67-.13,1.14-.2,1.41-.2.6.07,1.24.1,1.88.1h1.86c.34,0,.72-.02,1.13-.05.4-.03.77-.05,1.11-.05.54,0,1.04.02,1.51.05.49.03.99.02,1.53-.05.34-.07.69-.07,1.06,0,.37.07.72.1,1.07.1.6.07,1.19.1,1.76.1h7.04l.1.1c.13.07.27.12.4.15.13.03.24.08.3.15,0,.13-.03.27-.1.4-.07.13-.13.27-.2.4-.67.87-1.01,1.71-1.01,2.52v25.24c0,1.14-.02,2.28-.05,3.43-.03,1.14-.05,2.28-.05,3.43,0,4.55.02,9.08.05,13.57.03,4.5.05,9.03.05,13.58v.71Z"/>
    <path class="cls-3" d="m240.18,187.13v.1c.47-.07.92-.12,1.36-.15.44-.03.91-.12,1.38-.25.13,0,.29-.02.45-.05.17-.03.32-.05.45-.05.94-.07,1.85-.5,2.72-1.31.27-.27.52-.5.77-.71.24-.2.49-.4.76-.6.74-.6,1.31-1.31,1.71-2.12.27-.67.54-1.14.81-1.41,1.09-1.48,1.86-2.99,2.33-4.53.27-.87.49-1.73.65-2.57.17-.84.35-1.7.55-2.57,0-.13.02-.23.05-.3.03-.07.05-.17.05-.3.07-.54.13-1.02.2-1.46.07-.44.17-.92.3-1.46.07-.34.1-.69.1-1.06v-1.06c.07-.74.12-1.43.15-2.07.03-.64.05-1.29.05-1.96,0-.54.02-1.04.05-1.51.03-.47.05-.97.05-1.51-.07-.54-.13-1.04-.2-1.51-.07-.47-.1-.97-.1-1.51-.07-1.34-.22-2.64-.45-3.88-.23-1.24-.62-2.44-1.16-3.58-.07-.13-.1-.27-.1-.4s-.03-.27-.1-.4c-.13-.54-.27-1.04-.4-1.51-.13-.47-.3-.97-.52-1.51-.4-.94-.86-1.83-1.36-2.67-.5-.84-1.12-1.63-1.86-2.37-1.21-1.28-2.57-2.32-4.05-3.12-.54-.27-1.11-.45-1.71-.55-.62-.1-1.23-.22-1.83-.35-.67-.07-1.34-.08-2.01-.05-.67.03-1.36.18-2.03.45-2.49.87-4.58,2.52-6.26,4.94-.94,1.34-1.71,2.74-2.32,4.18-.62,1.44-1.16,2.94-1.63,4.48-.27.94-.45,1.86-.55,2.77-.1.91-.22,1.83-.35,2.77-.2.94-.3,1.88-.3,2.82s-.03,1.88-.1,2.82c0,.67.02,1.33.05,1.96.03.64.08,1.29.15,1.96.07.74.12,1.48.15,2.22.03.74.12,1.48.25,2.22.13.87.3,1.73.5,2.57.2.84.4,1.73.6,2.67.13.54.27,1.09.4,1.66.13.57.34,1.12.6,1.66.69,1.81,1.6,3.53,2.74,5.14.54.94,1.21,1.75,2.03,2.42.81.67,1.68,1.28,2.62,1.81,1.21.67,2.67.94,4.35.81Z"/>
    <path class="cls-1" d="m182.1,169.3h-22.87v24.68c0,.74.1,1.41.3,2.01.2.6.57,1.18,1.11,1.71.07.07.1.13.1.2l.3.6c-.27.13-.47.2-.6.2-1.01,0-2-.02-2.97-.05-.97-.03-1.96-.05-2.97-.05-.6,0-1.23.02-1.86.05-.64.03-1.26.05-1.86.05h-10.78c-.54,0-.94-.03-1.21-.1-.54-.07-.71-.37-.5-.91,0-.07.02-.12.05-.15.03-.03.05-.08.05-.15.4-.67.67-1.51.81-2.52.07-.81.12-1.61.15-2.42.03-.81.08-1.65.15-2.52,0-.34-.02-.67-.05-1.01-.03-.34-.08-.67-.15-1.01,0-.34.02-.69.05-1.06.03-.37.05-.72.05-1.06.13-1.14.17-2.23.1-3.27-.07-1.04-.13-2.13-.2-3.27-.07-.13-.1-.3-.1-.5.07-.94.12-1.83.15-2.67.03-.84.05-1.7.05-2.57v-10.18c-.07-1.14-.1-2.25-.1-3.32s-.03-2.18-.1-3.32v-2.57c0-.84.03-1.7.1-2.57.07-1.01.12-2.01.15-3.02.03-1.01-.02-2.01-.15-3.02-.07-.27-.08-.54-.05-.81.03-.27.05-.54.05-.81.07-.4.1-.79.1-1.16v-11.84c0-.54-.02-1.02-.05-1.46-.03-.44-.08-.92-.15-1.46,0-.34.03-.6.1-.81,0-.47-.03-.89-.1-1.26-.07-.37-.27-.72-.6-1.06-.27-.27-.44-.5-.5-.71-.47-.6-.34-.91.4-.91h.6c2.42.2,4.97.13,7.66-.2h.4c.74.07,1.49.12,2.27.15.77.03,1.56.05,2.37.05h5.84c.47,0,.92-.02,1.36-.05.44-.03.89-.08,1.36-.15.2,0,.37.07.5.2.13.2.1.4-.1.6-.13.27-.29.5-.45.71-.17.2-.32.4-.45.6-.13.34-.27.67-.4,1.01-.13.34-.2.67-.2,1.02v30.51c.34,0,.67.02,1.01.05.34.03.67.05,1.01.05,1.68.07,3.34.12,4.99.15,1.65.03,3.31.05,4.99.05.6,0,1.23-.03,1.86-.1.64-.07,1.29-.13,1.96-.2h7.15v-12.93c0-.54-.02-1.09-.05-1.68-.03-.57-.05-1.16-.05-1.76v-3.33c0-.2.02-.4.05-.62.03-.2.05-.37.05-.5s.02-.29.05-.45c.03-.17.05-.32.05-.45-.13-.54-.17-1.09-.1-1.66.07-.57.1-1.13.1-1.66.07-.54.07-1.11,0-1.68-.07-.57-.13-1.13-.2-1.66v-1.61c0-1.21-.27-2.23-.81-3.04-.34-.54-.44-.91-.3-1.11.13-.2.5-.34,1.11-.4.47-.07.92-.08,1.36-.05.45.03.91.05,1.38.05h6.33c1.38,0,2.74.03,4.1.1.6.07,1.19.08,1.76.05.59-.03,1.18-.12,1.78-.25.34-.07.65-.07.96,0,.3.07.62.1.97.1.4.07.79.12,1.16.15.37.03.76.05,1.16.05.67,0,.84.3.5.91-.4.6-.77,1.24-1.11,1.91-.13.54-.2.91-.2,1.11v8.06c0,1.14-.02,2.23-.05,3.27-.03,1.04-.05,2.13-.05,3.27,0,.34.02.65.05.96.03.3.05.62.05.96,0,.6-.02,1.19-.05,1.76-.03.57-.05,1.12-.05,1.66,0,1.14.02,2.27.05,3.38.03,1.11.05,2.23.05,3.38v14.31c0,.4-.02.82-.05,1.26-.03.44-.05.86-.05,1.26,0,1.95.02,3.86.05,5.74.03,1.88.05,3.8.05,5.74v11.69c0,1.48.44,2.62,1.31,3.43.07.07.1.12.1.15s.03.08.1.15c.34.67.17,1.01-.5,1.01h-22.17c-.47,0-.64-.2-.5-.6.13-.2.25-.42.35-.65s.22-.45.35-.65c.94-1.01,1.31-2.22,1.11-3.63-.2-1.34-.27-2.72-.2-4.13.07-1.41.1-2.82.1-4.23.07-.27.08-.52.05-.76-.03-.23-.05-.45-.05-.65v-2.37c0-.77-.03-1.56-.1-2.37,0-.27.03-.5.1-.71.07-1.01.07-2.01,0-3.02-.07-.54-.08-1.02-.05-1.46.03-.44.05-.89.05-1.36s-.02-.92-.05-1.36c-.03-.44-.08-.92-.15-1.46Z"/>
    <path class="cls-2" d="m93.42,140.77c0-3.71-1.21-6.77-3.62-9.19-2.6-2.6-5.67-3.9-9.19-3.9l-.56,47.9c3.71,0,6.86-1.3,9.47-3.9,2.6-2.6,3.9-5.75,3.9-9.47v-21.44h0Zm-4.46-71.57c0-3.71-1.25-6.82-3.76-9.33-2.51-2.51-5.62-3.76-9.33-3.76l-.28,47.9c3.71,0,6.87-1.3,9.47-3.9,2.6-2.6,3.9-5.75,3.9-9.47v-21.44h0ZM5.14,32.45h70.73c5.01,0,9.75.97,14.2,2.92,4.45,1.95,8.35,4.6,11.69,7.94,3.34,3.34,5.99,7.24,7.94,11.7,1.95,4.46,2.92,9.19,2.92,14.2v21.44c0,8.35-2.6,15.87-7.8,22.56.37.37.65.6.84.7.18.1.46.33.84.7,7.24,7.24,10.86,15.97,10.86,26.18v21.44c0,10.21-3.62,18.94-10.86,26.18-7.24,7.24-16.06,10.86-26.45,10.86H5.14c-2.05,0-3.53-1.02-4.46-3.06-.93-1.85-.74-3.53.56-5.01,3.15-3.52,5.75-7.89,7.8-13.09,2.23-5.38,3.34-10.86,3.34-16.43v-4.46l-.28-86.88c0-8.35-2.05-15.96-6.13-22.84-.74-1.29-1.49-2.51-2.23-3.62-.74-1.12-1.58-2.13-2.51-3.06-1.3-1.85-1.49-3.62-.56-5.29.93-1.67,2.41-2.69,4.46-3.06Z"/>
    <path class="cls-6" d="m62.33,71.83c0,39.61-1.07,71.72-2.39,71.72s-2.39-32.11-2.39-71.72S58.62.11,59.94.11s2.39,32.11,2.39,71.72Z"/>
    <rect class="cls-7" x="57.55" y="71.83" width="4.78" height="162.24"/>
    <path class="cls-4" d="m88.96,69.2c0-3.71-1.25-6.82-3.76-9.33-2.51-2.51-5.62-3.76-9.33-3.76h-34.05c-3.19,0-5.77,2.59-5.77,5.78v36.35c0,3.19,2.59,5.77,5.77,5.77h33.77c3.71,0,6.87-1.3,9.47-3.9,2.6-2.6,3.9-5.75,3.9-9.47v-21.44Z"/>
    <path class="cls-4" d="m93.42,140.77c0-3.71-1.21-6.77-3.62-9.19-2.6-2.6-5.67-3.9-9.19-3.9h-38.78c-3.19,0-5.77,2.59-5.77,5.77v36.35c0,3.19,2.59,5.77,5.77,5.77h38.22c3.71,0,6.86-1.3,9.47-3.9,2.6-2.6,3.9-5.75,3.9-9.47v-21.44Z"/>
    <path class="cls-6" d="m59.94,260.64c-1.1,0-1.99-.89-1.99-1.99s.89-2,1.99-2,2,.9,2,2-.89,1.99-2,1.99h0Zm1.14-46.94l-1.14-.7-1.14.7s-4.79,5.69-4.33,10.07v35.85c0,2.79,2.38,5.1,5.35,5.12h.24c2.97-.02,5.35-2.32,5.35-5.12v-35.85c.45-4.38-4.34-10.07-4.34-10.07Z"/>
    <path class="cls-5" d="m41.72,84.92c5.58-1.94,13.79-4.44,19.54-6.17,4.9-1.54,9.84-3.02,14.99-3.47,1.71-.19,3.46-.28,5.2-.14l.03.25c-6.47,2.34-12.98,4.07-19.72,5.31l-19.97,4.47-.07-.24Z"/>
    <path class="cls-5" d="m47.53,92.9c5-1.83,12.37-4.17,17.53-5.8,4.4-1.45,8.83-2.84,13.48-3.22,1.54-.16,3.13-.24,4.7-.09l.03.25c-5.78,2.28-11.62,3.88-17.7,5.01,0,0-17.98,4.09-17.98,4.09l-.07-.24Z"/>
    <path class="cls-5" d="m52.02,73.77c3.84-1.37,9.51-3.12,13.47-4.33,3.38-1.08,6.79-2.12,10.35-2.39,1.18-.12,2.4-.17,3.6-.04l.02.19c-4.44,1.71-8.93,2.9-13.6,3.73l-13.8,3.02-.05-.18Z"/>
    <path class="cls-5" d="m43.95,155.53c5.58-1.94,13.79-4.44,19.54-6.17,4.9-1.54,9.84-3.02,14.99-3.47,1.71-.19,3.46-.28,5.2-.14l.03.25c-6.47,2.34-12.98,4.07-19.72,5.31l-19.97,4.47-.07-.24Z"/>
    <path class="cls-5" d="m49.76,163.51c5-1.83,12.37-4.17,17.53-5.8,4.4-1.45,8.83-2.84,13.48-3.22,1.54-.16,3.13-.24,4.7-.09l.03.25c-5.78,2.28-11.62,3.88-17.7,5.01l-17.98,4.09-.07-.24Z"/>
    <path class="cls-5" d="m54.25,144.38c3.84-1.37,9.51-3.12,13.47-4.33,3.38-1.08,6.79-2.12,10.35-2.39,1.18-.12,2.4-.17,3.6-.04l.02.19c-4.44,1.71-8.93,2.9-13.6,3.73l-13.8,3.02-.05-.18Z"/>
  </g>
  <text class="cls-8" transform="translate(137.79 253.8)"><tspan x="0" y="0">Biggest Barbeque Buffet</tspan></text>
</svg>