<svg id="Layer_1" data-name="Layer 1" xmlns="http://www.w3.org/2000/svg" xmlns:xlink="http://www.w3.org/1999/xlink" viewBox="0 0 64 64"><defs><style>.cls-1{fill:none;}.cls-2{fill:red;}.cls-3{clip-path:url(#clip-path);}.cls-4{fill:#fff;}</style><clipPath id="clip-path" transform="translate(0 0)"><rect class="cls-1" x="-52.28" y="-33.31" width="168.55" height="168.55"/></clipPath></defs><path class="cls-2" d="M32,0h0A32,32,0,0,1,64,32h0A32,32,0,0,1,32,64h0A32,32,0,0,1,0,32H0A32,32,0,0,1,32,0Z" transform="translate(0 0)"/><g class="cls-3"><path class="cls-2" d="M38.42,18.43l0-.1,0,.1" transform="translate(0 0)"/><path class="cls-4" d="M19.61,44.46c-5.37-6.82.85-12.62.85-12.62.27,1.74,3,4.82,3,4.82C23.41,35.06,26,32,26,32a24.48,24.48,0,0,0,0,6.72c.55,3.27,4.35,4.86,4.35,4.86-.1-2.92,3.17-5.2,3.17-5.2L35.06,40c1.14-.49,3.31-5.47,3.31-5.47,1.47,1.72.2,5.66.2,5.66,3.15-.69,5.15-6.6,5.15-6.6,1.23.91,1.71,6.24,1.71,6.24l2.31-3.44c1.15,2.56-.67,6.9-1.21,8.08h.52a9.52,9.52,0,0,0,5-6.73c1-5.35-2.15-7.12-2.15-7.12s-1.1,3.15-3,3-.46-4-.46-4c-.36.85-2.67,2.49-2.67,2.49a7,7,0,0,0,.19-5.7,35.9,35.9,0,0,1-2-7.31s-2.52,5.42-1.52,9.05-.92,5.41-.92,5.41.51-1.31-.94-3.62c-1.3-2.08-.68-5.22-.54-5.83-.35,1.34-2.74,4.92-2.76,7.31s-.1,6.51-1.11,4.94a24.39,24.39,0,0,0-2.61-3.21c.75,1.49-.18,5.11-2.17,5s-.79-4,2-6.44,1.91-5.18,1.91-5.18-.75,2.43-2.68,2.69-2.58-2.28-.37-4.86S32,20.09,32,20.09s-1.24,1.48-2.1,1.32,1.68-2.47,1.79-5.65a14.47,14.47,0,0,0-1.25-6,20.59,20.59,0,0,1-.69,4.42c-.7,2.9-5.24,7.52-4.59,9.81s-.4,3.77-2.16,3.71S22,26.31,23,23.49a7.49,7.49,0,0,0-.8-5.68s-.42,4.44-2.44,7S16.51,29,17,31s-.27,4-1.71,3.46-.07-3.86-.07-3.86a6.54,6.54,0,0,0-4.07,6.24c.07,3,4,5.87,6.93,7.63Z" transform="translate(0 0)"/><path class="cls-4" d="M32.76,26.33s.72-5.49,3.06-5.94-2.43,3.34-3.06,5.94" transform="translate(0 0)"/><path class="cls-4" d="M51.36,42.64s3.17-3.35,1.84-9.11c0,0,4.12,5.73-1.84,9.11" transform="translate(0 0)"/></g></svg>